# xmcd CD database file
#
# Track frame offsets:
#	150
#	18368
#	41830
#	61993
#	76648
#	91988
#	104963
#	123615
#	135853
#	143365
#	164000
#
# Disc length: 2452 seconds
#
# Revision: 0
# Processed by: cddbd v1.5.1PL0 Copyright (c) Steve Scherf et al.
# Submitted via: CDex 1.51
#
DISCID=8d09920b
DTITLE=泉谷しげる - 光石の巨人
DYEAR=1990
DGENRE=New Age
TTITLE0=黄昏のオレンジ・ロード
TTITLE1=テスト・ドライバー
TTITLE2=南海の狼火（のろし）
TTITLE3=決定！ホンキー・ふりかけ・トンク
TTITLE4=電光石火に銀の靴
TTITLE5=恋のカセット・テープ
TTITLE6=火曜の朝、君とツイスト
TTITLE7=旅立て女房
TTITLE8=遥かなるセーヌの畔に
TTITLE9=巨人はゆりかごで眠るTo 80'S
TTITLE10=土曜の夜君と帰る
EXTD=YEAR: 1990
EXTT0=
EXTT1=
EXTT2=
EXTT3=
EXTT4=
EXTT5=
EXTT6=
EXTT7=
EXTT8=
EXTT9=
EXTT10=
PLAYORDER=
